<svg xmlns="http://www.w3.org/2000/svg" xmlns:xlink="http://www.w3.org/1999/xlink" width="50mm" height="50mm" shape-rendering="geometricPrecision" text-rendering="geometricPrecision" image-rendering="optimizeQuality" fill-rule="evenodd" clip-rule="evenodd" viewBox="0 0 50 50"><defs><linearGradient id="a"><stop offset="0" stop-color="#fff"/><stop offset="1" stop-color="#fff" stop-opacity="0"/></linearGradient><linearGradient xlink:href="#a" id="b" x1="21.376" y1="37.469" x2="77.641" y2="37.469" gradientUnits="userSpaceOnUse"/></defs><path fill="#1F1A17" d="M28.408 9.22h4.216V5.825h6.799v9.296l-5.503 4.242v11.862l4.216 4.216v5.08h3.793v5.927H8.071V40.52h3.793v-5.08l4.242-4.216V19.363l-5.504-4.242V5.825h6.774V9.22h4.242V5.825h6.79z"/><path fill="url(#b)" d="M33.073 17.678l3.15-2.557h-22.42l3.175 2.557h16.095zm7.197 24.528H9.756v2.557H40.27v-2.557zm-3.844-5.055H13.6v3.37h22.826v-3.37zm-4.217-17.788H17.816v11.862h14.393V19.363zm5.504-5.927V7.51h-3.395v3.395h-7.646V7.51h-3.344v3.395h-7.62V7.51h-3.395v5.926h25.4zm-1.914 22.005l-2.548-2.531H16.8l-2.6 2.531h21.6z"/></svg>